<svg id="Layer_1" data-name="Layer 1" xmlns="http://www.w3.org/2000/svg" viewBox="81 0 263.74127 262.92525">
    <defs>
        <style>
            .cls-1{fill:url(#linear-gradient);}.cls-2{fill:url(#linear-gradient-2);}.cls-3{fill:#fff;}.cls-4,.cls-5{opacity:0.45;}.cls-4{fill:url(#linear-gradient-3);}.cls-5{fill:url(#linear-gradient-4);}
        </style>
        <linearGradient id="linear-gradient-2" x1="566.17949" y1="347.81386" x2="188.37265" y2="347.81386"
                        gradientUnits="userSpaceOnUse">
            <stop offset="0.12366" stop-color="#ec4d37"/>
            <stop offset="0.31928" stop-color="#ed5136"/>
            <stop offset="0.49228" stop-color="#ee5b32"/>
            <stop offset="0.65668" stop-color="#f16d2b"/>
            <stop offset="0.81492" stop-color="#f58722"/>
            <stop offset="0.88294" stop-color="#f7941d"/>
        </linearGradient>
        <linearGradient id="linear-gradient-3" x1="194.00904" y1="148.90464" x2="194.00904" y2="111.36132"
                        gradientUnits="userSpaceOnUse">
            <stop offset="0"/>
            <stop offset="0.03466" stop-color="#161616"/>
            <stop offset="0.12887" stop-color="#4c4c4c"/>
            <stop offset="0.22661" stop-color="#7c7c7c"/>
            <stop offset="0.32585" stop-color="#a4a4a4"/>
            <stop offset="0.42687" stop-color="#c5c5c5"/>
            <stop offset="0.5303" stop-color="#dfdfdf"/>
            <stop offset="0.63713" stop-color="#f1f1f1"/>
            <stop offset="0.74941" stop-color="#fbfbfb"/>
            <stop offset="0.87634" stop-color="#fff"/>
        </linearGradient>
        <linearGradient id="linear-gradient-4" x1="194.00904" y1="186.80233" x2="194.00904" y2="215.68873"
                        gradientUnits="userSpaceOnUse">
            <stop offset="0"/>
            <stop offset="0.03479" stop-color="#0b0b0b"/>
            <stop offset="0.31184" stop-color="#616161"/>
            <stop offset="0.55645" stop-color="#a4a4a4"/>
            <stop offset="0.7595" stop-color="#d6d6d6"/>
            <stop offset="0.91335" stop-color="#f4f4f4"/>
            <stop offset="1" stop-color="#fff"/>
        </linearGradient>
    </defs>
    <title>CloudParallax Logo svg</title>
    <path class="cls-2"
          d="M497.07715,347.81831A131.44254,131.44254,0,0,1,366.62751,479.26762c-.33614.00886-.67233.00886-1.00853.00886A131.46263,131.46263,0,1,1,497.07715,347.81831Z"
          transform="translate(-152.27951 -216.35123)"/>
    <path class="cls-3"
          d="M430.532,283.18084A70.28384,70.28384,0,0,0,380.697,262.543h-54.3678V363.58158H234.1519a130.85508,130.85508,0,0,0,11.55439,39.89813h80.62293v69.9751a131.98124,131.98124,0,0,0,38.89384,5.82167c.33775,0,.67549,0,1.01319-.0089V403.47971H380.697A70.47093,70.47093,0,0,0,430.532,283.18084Zm-28.21935,71.45054a30.49109,30.49109,0,0,1-21.61559,8.9502H366.23625V302.45H380.697a30.56907,30.56907,0,0,1,21.61559,52.18139Z"
          transform="translate(-152.27951 -216.35123)"/>
    <rect class="cls-4" x="174.14745" y="99.32062" width="39.72319" height="47.46946"/>
    <rect class="cls-5" x="174.14745" y="187.14864" width="39.72319" height="45.37457"/>
</svg>
